<?xml version="1.0" standalone="no"?>
<!DOCTYPE svg PUBLIC "-//W3C//DTD SVG 20010904//EN"
 "http://www.w3.org/TR/2001/REC-SVG-20010904/DTD/svg10.dtd">
<svg version="1.0" xmlns="http://www.w3.org/2000/svg"
 width="1000.000000pt" height="1000.000000pt" viewBox="0 0 1000.000000 1000.000000"
 preserveAspectRatio="xMidYMid meet">
<metadata>
Created by potrace 1.14, written by Peter Selinger 2001-2017
</metadata>
<g transform="translate(0.000000,1000.000000) scale(0.100000,-0.100000)"
fill="#000000" stroke="none">
<path d="M4977 8240 c-3 -11 0 -20 5 -20 6 0 4 -8 -3 -17 -12 -14 -12 -16 1
-9 9 4 8 1 -2 -7 -10 -8 -18 -21 -18 -30 0 -9 -5 -19 -10 -22 -6 -4 -8 -10 -5
-15 3 -5 -3 -13 -12 -19 -10 -6 -14 -11 -9 -11 5 0 3 -7 -4 -15 -6 -8 -9 -19
-5 -25 3 -5 2 -10 -3 -10 -11 0 -35 -50 -28 -58 3 -2 -4 -16 -14 -30 -11 -13
-20 -31 -20 -38 0 -8 -4 -14 -10 -14 -5 0 -9 -4 -7 -8 2 -8 -45 -119 -64 -152
-5 -8 -12 -22 -15 -30 -4 -8 -11 -27 -18 -42 -6 -16 -15 -28 -19 -28 -5 0 -5
-4 -2 -10 3 -5 1 -10 -5 -10 -6 0 -8 -4 -5 -10 3 -5 1 -10 -4 -10 -6 0 -11
-10 -11 -23 0 -13 -5 -28 -12 -35 -7 -7 -9 -12 -4 -12 4 0 0 -7 -8 -16 -9 -8
-14 -20 -11 -25 4 -5 1 -9 -5 -9 -6 0 -9 -4 -6 -9 4 -5 2 -11 -4 -13 -6 -2
-12 -14 -15 -27 -2 -14 -8 -27 -12 -30 -8 -6 -15 -27 -16 -48 0 -7 -4 -10 -8
-8 -9 6 -21 -24 -13 -36 3 -5 1 -9 -5 -9 -9 0 -24 -32 -26 -53 0 -4 -7 -12
-15 -17 -8 -5 -11 -10 -6 -10 4 0 1 -11 -8 -25 -9 -14 -13 -25 -10 -25 4 0 -1
-9 -11 -20 -10 -11 -15 -20 -10 -20 4 0 3 -6 -2 -12 -6 -7 -13 -26 -17 -41 -4
-17 -11 -25 -18 -21 -6 4 -8 3 -4 -4 7 -12 -13 -62 -25 -62 -5 0 -5 -7 -2 -17
5 -12 3 -14 -7 -8 -10 6 -12 4 -7 -8 4 -10 1 -17 -5 -17 -6 0 -9 -3 -5 -6 3
-3 -5 -26 -19 -51 -13 -25 -22 -49 -19 -53 3 -4 -2 -11 -11 -14 -8 -3 -12 -10
-9 -16 3 -5 1 -10 -4 -10 -6 0 -10 -3 -10 -7 4 -22 -2 -33 -13 -27 -9 5 -9 3
1 -9 11 -14 11 -18 -2 -23 -14 -5 -33 -49 -29 -66 1 -5 -3 -8 -9 -8 -5 0 -7
-4 -4 -10 3 -5 2 -10 -4 -10 -10 0 -27 -38 -23 -52 1 -5 -2 -8 -7 -8 -7 0 -25
-48 -21 -58 0 -1 -6 -10 -15 -18 -8 -9 -13 -20 -10 -25 4 -5 1 -9 -5 -9 -6 0
-9 -4 -5 -9 3 -5 -1 -16 -9 -24 -8 -8 -12 -17 -9 -21 4 -3 1 -6 -5 -6 -7 0
-12 -5 -12 -11 0 -5 6 -7 13 -4 6 4 2 -2 -10 -13 -12 -11 -20 -22 -17 -25 4
-3 0 -15 -8 -26 -8 -12 -17 -18 -21 -15 -3 3 -3 -3 0 -15 3 -13 1 -21 -7 -21
-7 0 -10 -7 -6 -15 3 -9 -3 -23 -13 -32 -11 -9 -17 -22 -14 -29 3 -8 0 -14 -7
-14 -6 0 -8 -4 -5 -10 3 -5 1 -10 -4 -10 -6 0 -11 -11 -11 -25 0 -14 -6 -28
-14 -31 -8 -3 -13 -14 -11 -25 2 -10 -1 -19 -6 -19 -6 0 -7 -4 -4 -10 3 -5 1
-10 -5 -10 -6 0 -8 -5 -5 -10 3 -6 -1 -13 -9 -16 -9 -3 -14 -10 -11 -14 3 -5
1 -11 -5 -15 -6 -4 -8 -11 -5 -16 4 -5 0 -12 -9 -15 -8 -3 -13 -11 -10 -19 3
-7 -1 -19 -8 -26 -8 -8 -20 -33 -27 -56 -8 -23 -17 -41 -20 -38 -4 2 -8 -6 -8
-17 -1 -12 -8 -25 -15 -29 -7 -5 -9 -9 -4 -9 5 0 3 -7 -4 -15 -7 -8 -9 -15 -5
-15 5 0 1 -8 -8 -17 -8 -10 -16 -20 -15 -23 0 -21 -16 -59 -23 -54 -5 3 -8 2
-7 -3 4 -13 -25 -83 -35 -83 -4 0 -6 -4 -2 -9 3 -5 -3 -17 -12 -27 -10 -10
-17 -18 -15 -18 8 -2 -11 -56 -20 -56 -5 0 -6 -5 -2 -11 3 -6 2 -14 -3 -18
-11 -7 -43 -74 -43 -90 0 -6 -5 -11 -11 -11 -5 0 -8 -4 -5 -9 3 -5 0 -14 -8
-20 -12 -10 -14 -24 -7 -49 1 -1 11 2 22 9 16 8 20 8 14 -1 -6 -9 -2 -9 14 -1
16 9 21 9 21 0 0 -8 4 -8 15 1 8 7 15 8 15 3 0 -9 14 -12 90 -16 26 -1 51 -9
60 -18 13 -14 17 -15 29 -2 11 12 15 13 22 1 5 -7 16 -14 26 -15 64 -6 113
-26 113 -46 0 -7 4 -6 10 3 7 11 10 11 10 2 0 -7 5 -10 10 -7 6 3 10 1 10 -5
0 -6 4 -9 9 -5 5 3 12 1 16 -5 4 -6 11 -8 16 -5 5 4 9 1 9 -4 0 -6 7 -11 15
-11 8 0 15 -4 15 -10 0 -5 6 -10 13 -10 7 0 22 -8 33 -18 10 -10 27 -21 37
-25 9 -3 17 -11 17 -17 0 -14 46 -60 60 -60 5 0 10 -7 10 -15 0 -7 6 -18 13
-22 15 -10 37 -49 37 -67 0 -8 6 -16 14 -19 9 -4 12 -15 8 -32 -3 -17 0 -30 9
-36 12 -8 12 -11 -1 -19 -10 -6 -11 -10 -2 -10 8 0 11 -14 8 -50 -3 -37 -1
-48 7 -43 7 4 6 -1 -2 -10 -10 -13 -11 -20 -2 -30 6 -8 8 -17 4 -21 -7 -7 -11
-22 -15 -66 -2 -14 -7 -28 -13 -32 -6 -5 -4 -8 4 -8 11 0 10 -4 -5 -16 -10 -8
-12 -12 -4 -8 12 7 13 5 3 -8 -7 -8 -10 -18 -6 -21 3 -4 2 -7 -4 -7 -9 0 -11
-6 -15 -50 -1 -11 -6 -20 -10 -20 -4 0 -8 -7 -8 -15 0 -8 -5 -15 -11 -15 -5 0
-8 -4 -4 -9 3 -5 1 -12 -5 -16 -6 -4 -8 -11 -5 -16 4 -5 1 -9 -6 -9 -7 0 -9
-3 -6 -7 4 -3 1 -13 -7 -22 -8 -9 -15 -18 -16 -21 -6 -30 -14 -50 -20 -50 -8
0 -23 -38 -21 -52 1 -5 -4 -8 -11 -8 -6 0 -9 -3 -5 -6 3 -4 -5 -22 -20 -40
-14 -19 -23 -34 -20 -34 3 0 -8 -14 -24 -31 -16 -18 -27 -34 -24 -37 3 -3 -4
-12 -15 -19 -11 -8 -18 -18 -15 -23 3 -5 -4 -11 -15 -15 -11 -3 -29 -19 -41
-36 -11 -16 -25 -27 -30 -24 -5 4 -9 -1 -9 -9 0 -9 -5 -16 -11 -16 -5 0 -8 -4
-5 -8 3 -5 -10 -15 -29 -22 -19 -7 -33 -16 -31 -19 2 -3 -25 -20 -60 -37 -35
-18 -61 -27 -57 -20 3 6 0 6 -8 -1 -7 -7 -23 -13 -34 -13 -12 0 -25 -3 -29 -7
-11 -12 -76 -11 -76 0 0 6 -5 6 -12 0 -17 -13 -48 -12 -48 1 0 6 -5 4 -10 -4
-7 -12 -12 -12 -22 -2 -6 6 -27 12 -44 12 -18 0 -36 5 -39 11 -4 6 -13 8 -20
5 -7 -2 -25 2 -40 10 -15 8 -31 11 -36 8 -5 -3 -9 0 -9 6 0 6 -4 9 -9 6 -5 -4
-11 -2 -13 4 -2 6 -13 12 -25 14 -12 3 -31 10 -42 16 -12 6 -21 8 -21 4 0 -4
-8 2 -17 13 -10 11 -26 19 -35 17 -9 -1 -19 5 -22 13 -3 8 -10 11 -16 8 -6 -3
-13 0 -16 9 -3 8 -12 12 -20 9 -8 -3 -23 2 -33 11 -10 10 -28 18 -40 19 -11 1
-21 4 -21 7 0 3 -25 16 -55 29 -30 13 -55 28 -55 33 0 5 -4 7 -8 4 -5 -3 -23
4 -40 14 -22 14 -32 16 -32 7 -1 -7 -6 -5 -14 6 -7 9 -21 17 -30 17 -9 0 -16
3 -16 8 0 8 -49 32 -67 32 -7 0 -13 5 -13 12 0 6 -3 8 -7 5 -3 -4 -12 1 -20
11 -8 9 -12 11 -8 5 4 -9 1 -11 -9 -7 -9 3 -16 11 -16 16 0 6 -7 8 -15 4 -8
-3 -15 -1 -15 4 0 5 -7 7 -15 3 -10 -3 -15 0 -13 8 3 12 -2 15 -38 18 -8 0
-13 5 -9 10 3 6 -3 8 -13 6 -11 -2 -30 7 -44 20 -14 13 -29 21 -32 18 -3 -4
-6 -1 -6 5 0 7 -3 11 -7 10 -16 -4 -73 14 -73 23 0 5 -5 9 -10 9 -6 0 -22 8
-37 17 -14 9 -35 18 -46 18 -12 1 -23 7 -25 13 -2 7 -10 12 -18 12 -7 0 -29 9
-49 20 -20 11 -42 20 -51 20 -8 0 -17 7 -20 15 -4 8 -10 13 -14 10 -5 -3 -15
2 -24 10 -8 9 -18 16 -21 15 -20 -1 -25 1 -20 9 3 6 -4 8 -15 6 -12 -2 -23 2
-26 9 -3 8 -13 13 -22 12 -9 -2 -25 7 -35 18 -10 12 -15 15 -11 7 5 -9 3 -12
-4 -7 -7 4 -12 14 -12 22 0 8 -5 14 -11 14 -5 0 -7 -6 -4 -12 4 -7 0 -5 -8 5
-8 9 -19 17 -26 17 -6 0 -11 5 -11 10 0 6 -10 22 -22 35 -39 42 -47 53 -41 59
4 3 2 6 -4 6 -5 0 -10 6 -10 13 0 6 -4 21 -9 31 -5 15 -4 17 6 11 9 -6 11 -4
5 5 -11 18 -16 102 -6 96 5 -3 8 2 8 12 0 40 4 53 13 47 6 -4 9 -3 8 2 -4 16
15 58 33 74 11 9 19 21 19 28 0 6 5 11 12 11 6 0 9 3 6 6 -7 6 1 14 74 81 25
23 43 45 40 49 -4 4 3 4 16 1 12 -3 20 -1 16 4 -3 5 0 9 6 9 6 0 8 5 5 10 -3
6 0 10 7 10 7 0 25 10 40 23 14 12 34 27 44 33 17 10 17 12 2 27 -9 10 -19 17
-22 17 -3 0 -24 18 -47 40 -23 22 -46 40 -51 40 -5 0 -7 4 -4 9 3 5 -4 11 -15
14 -12 3 -18 10 -14 16 3 6 0 11 -7 11 -7 0 -35 20 -61 45 -27 25 -53 45 -58
45 -6 0 -8 4 -5 8 6 10 -38 52 -54 52 -6 0 -10 5 -10 11 0 5 -4 7 -10 4 -5 -3
-10 1 -10 10 0 9 -4 13 -10 10 -5 -3 -10 1 -10 10 0 9 -4 14 -8 11 -5 -3 -15
6 -22 19 -7 14 -19 25 -25 25 -7 0 -21 11 -31 25 -10 14 -23 25 -27 25 -5 0
-28 19 -51 43 -58 57 -117 107 -128 107 -4 0 -8 7 -8 15 0 8 -4 15 -10 15 -5
0 -23 14 -40 31 -16 18 -30 28 -30 24 0 -4 -9 2 -20 15 -11 13 -20 28 -20 33
0 6 -3 8 -6 4 -3 -3 -27 14 -52 39 -26 24 -51 44 -55 44 -5 0 -5 5 -2 10 6 10
-9 15 -30 10 -5 -1 -7 2 -2 6 8 8 -31 54 -46 54 -5 0 -22 12 -37 28 -15 15
-33 32 -40 38 -7 7 -23 24 -37 38 -13 15 -28 24 -33 21 -5 -3 -12 4 -15 16 -4
11 -9 18 -12 15 -3 -2 -29 20 -58 50 -30 30 -56 54 -59 54 -3 0 -22 16 -42 35
-19 19 -40 35 -45 35 -5 0 -9 7 -9 15 0 8 -6 15 -14 15 -8 0 -17 7 -20 16 -3
8 -10 13 -14 10 -5 -3 -19 12 -33 33 -13 22 -27 37 -31 35 -7 -5 -44 27 -138
119 -33 31 -64 57 -70 57 -5 0 -10 8 -10 18 0 14 -2 15 -10 2 -8 -13 -10 -12
-10 3 0 9 -7 17 -15 17 -9 0 -12 6 -8 17 4 10 2 14 -5 9 -6 -3 -15 2 -21 11
-6 10 -11 15 -11 10 0 -4 -21 13 -46 38 -26 25 -51 45 -56 45 -5 0 -7 4 -4 9
5 8 -7 16 -32 22 -4 1 -11 8 -17 15 -6 8 -15 10 -23 5 -17 -10 -13 -117 5
-114 6 1 10 -5 8 -15 -1 -9 2 -20 7 -23 6 -4 6 -15 -1 -28 -9 -17 -9 -22 2
-27 8 -3 13 -16 11 -30 -1 -13 1 -24 4 -24 4 0 8 -17 10 -38 6 -67 8 -77 16
-90 4 -7 2 -12 -6 -12 -8 0 -9 -3 -3 -8 6 -4 12 -18 13 -32 2 -14 8 -30 13
-37 7 -7 6 -14 -1 -18 -7 -4 -7 -12 0 -26 6 -10 8 -19 5 -19 -3 0 -1 -9 5 -19
7 -14 6 -21 -3 -24 -9 -4 -9 -6 1 -6 7 -1 10 -5 7 -11 -3 -5 -3 -16 2 -22 4
-7 8 -20 8 -28 0 -8 4 -21 8 -27 5 -8 4 -13 -3 -13 -7 0 -8 -6 -2 -17 5 -10 7
-24 5 -30 -3 -7 1 -13 7 -13 6 0 10 -6 7 -12 -2 -7 0 -23 4 -36 7 -17 6 -21
-3 -16 -8 5 -9 2 -3 -12 5 -10 9 -29 9 -41 1 -13 4 -23 8 -23 4 0 5 -9 3 -20
-2 -11 0 -22 4 -24 4 -3 7 -20 6 -38 0 -18 4 -36 8 -39 5 -4 9 -25 9 -48 0
-22 2 -41 6 -41 4 0 8 -11 8 -25 1 -16 -2 -23 -10 -19 -6 3 -2 -2 8 -10 11 -9
14 -16 8 -16 -9 0 -10 -5 -3 -19 6 -10 8 -21 4 -24 -3 -4 -2 -12 4 -19 5 -7
11 -33 12 -58 2 -25 6 -47 9 -50 4 -3 7 -24 7 -47 0 -23 3 -39 7 -37 3 2 9 0
13 -6 3 -5 1 -10 -6 -10 -8 0 -9 -4 0 -13 8 -10 7 -17 -1 -25 -9 -9 -9 -12 1
-12 7 0 12 -10 11 -22 -1 -13 -1 -26 0 -30 1 -5 4 -12 5 -18 1 -5 3 -11 5 -12
1 -2 3 -19 4 -38 1 -19 4 -39 6 -45 3 -5 5 -26 5 -45 0 -19 6 -41 13 -49 10
-10 11 -16 2 -21 -9 -6 -9 -9 0 -15 9 -6 9 -10 -1 -16 -11 -7 -11 -9 -1 -9 7
0 10 -4 7 -10 -3 -5 -3 -10 2 -10 4 0 9 -15 10 -33 4 -43 7 -60 16 -74 4 -6 3
-14 -3 -18 -6 -4 -4 -15 6 -31 9 -13 12 -24 7 -24 -5 0 -9 -9 -9 -20 0 -11 4
-20 9 -20 4 0 5 -4 2 -10 -3 -5 -2 -10 4 -10 10 0 9 -19 -2 -38 -5 -7 -2 -15
8 -18 13 -6 14 -8 3 -15 -10 -7 -11 -9 0 -9 7 0 10 -5 7 -10 -4 -6 -1 -18 7
-27 8 -10 8 -14 1 -10 -6 4 -14 3 -18 -3 -3 -5 0 -10 7 -10 13 0 19 -23 21
-82 0 -16 4 -28 7 -28 4 0 6 -10 5 -22 -1 -13 2 -29 8 -35 6 -9 5 -13 -4 -13
-10 -1 -9 -4 3 -11 15 -8 15 -14 6 -35 -8 -18 -9 -28 -1 -32 5 -4 13 -27 16
-52 7 -52 16 -116 20 -133 3 -15 16 -28 51 -51 16 -10 25 -12 21 -5 -9 14 10
5 37 -19 9 -7 22 -11 27 -7 6 3 11 1 11 -4 0 -6 7 -11 15 -11 8 0 15 -5 15
-11 0 -5 5 -7 10 -4 6 3 10 2 10 -4 0 -5 9 -8 20 -6 11 2 18 0 15 -6 -4 -5 1
-9 9 -9 9 0 16 -6 16 -12 0 -9 4 -8 10 2 9 14 14 7 11 -13 -1 -5 3 -6 9 -2 5
3 20 0 32 -7 13 -7 26 -11 31 -10 4 1 7 -3 7 -8 0 -6 9 -10 20 -10 11 0 20 -4
20 -10 0 -5 3 -9 8 -9 25 4 42 -2 36 -13 -4 -7 -4 -10 1 -6 4 4 20 1 35 -7 15
-8 30 -11 34 -8 3 4 6 2 6 -4 0 -6 22 -19 50 -29 27 -10 50 -22 50 -27 0 -4 5
-5 10 -2 6 3 10 1 10 -5 0 -6 5 -8 10 -5 5 3 10 1 10 -5 0 -6 4 -9 9 -5 5 3
12 1 16 -5 4 -6 11 -8 16 -5 5 4 9 1 9 -4 0 -6 6 -11 14 -11 7 0 29 -11 49
-24 19 -13 38 -22 40 -19 8 7 107 -38 107 -49 0 -5 5 -6 10 -3 6 3 10 2 10 -3
0 -6 9 -8 20 -5 13 4 20 0 20 -10 0 -8 8 -14 18 -14 26 0 62 -14 62 -24 0 -5
7 -9 15 -9 8 0 15 -4 15 -10 0 -5 3 -9 8 -9 24 4 51 -3 68 -19 10 -9 28 -19
39 -20 11 -2 24 -8 29 -13 6 -5 18 -9 28 -9 10 0 18 -5 18 -11 0 -5 4 -8 9 -4
5 3 16 -2 24 -10 9 -8 23 -15 31 -15 9 0 16 -5 16 -12 0 -6 3 -8 7 -5 3 4 15
-1 26 -10 15 -13 19 -14 13 -3 -5 9 -2 8 7 -2 8 -10 17 -15 20 -11 4 3 13 1
20 -5 8 -7 17 -9 20 -5 4 3 7 1 7 -6 0 -7 5 -9 10 -6 6 3 10 1 10 -5 0 -6 5
-8 10 -5 6 3 10 2 10 -4 0 -5 9 -8 20 -6 11 2 19 -1 17 -8 -1 -7 6 -11 16 -11
9 1 17 -2 17 -7 0 -5 7 -9 15 -9 8 0 15 -4 15 -10 0 -5 6 -7 14 -4 7 3 21 -2
29 -11 9 -9 18 -15 19 -14 10 6 47 -14 42 -23 -4 -7 -2 -8 5 -4 12 8 71 -14
71 -26 0 -5 7 -8 15 -8 9 0 30 -8 48 -17 18 -9 40 -17 49 -18 10 -1 26 -10 37
-19 11 -10 24 -15 30 -12 5 4 14 -1 18 -9 5 -8 20 -17 33 -20 13 -2 28 -9 34
-15 5 -5 18 -10 28 -10 10 0 18 -4 18 -9 0 -5 13 -11 29 -14 16 -3 35 -13 44
-21 8 -8 18 -12 22 -8 3 4 12 0 18 -9 13 -17 17 -19 43 -19 8 0 12 -5 9 -10
-4 -6 -3 -10 2 -9 29 5 63 -2 57 -12 -4 -7 -1 -10 7 -7 8 3 20 -1 27 -8 7 -8
31 -18 52 -24 22 -6 40 -15 40 -20 0 -6 9 -10 21 -10 13 0 18 -4 13 -12 -4 -6
-3 -8 4 -4 12 7 62 -13 62 -26 0 -5 4 -7 9 -4 10 7 61 -16 61 -27 0 -5 4 -6 9
-2 5 3 12 1 16 -5 4 -6 11 -8 16 -5 5 4 9 1 9 -4 0 -6 9 -11 20 -11 11 0 20
-5 20 -11 0 -5 4 -8 9 -4 5 3 13 0 16 -6 4 -5 13 -8 21 -5 8 3 14 2 14 -3 0
-5 14 -14 30 -21 17 -7 30 -17 30 -22 0 -6 7 -5 15 2 12 10 15 10 15 -3 0 -10
6 -14 15 -11 8 4 15 1 15 -7 0 -7 3 -10 6 -6 4 3 13 0 21 -8 8 -8 23 -15 34
-15 11 0 18 -4 15 -8 -5 -8 8 -12 47 -13 9 0 15 -4 12 -10 -4 -5 1 -9 9 -9 8
0 36 -11 61 -25 25 -14 45 -22 45 -18 0 4 4 2 8 -5 5 -7 18 -14 30 -17 11 -2
29 -8 39 -13 10 -6 22 -12 28 -14 5 -1 9 -7 7 -11 -1 -5 2 -6 7 -3 5 4 17 -1
25 -10 11 -11 16 -12 16 -3 0 7 7 5 16 -7 8 -10 13 -14 10 -8 -2 5 15 1 39
-10 24 -11 41 -24 39 -28 -3 -4 2 -5 10 -2 9 3 16 1 16 -6 0 -6 5 -8 10 -5 6
3 10 2 10 -3 0 -5 7 -9 15 -10 8 -1 22 -3 30 -4 8 -1 15 -5 15 -10 0 -4 7 -8
15 -8 8 0 15 -4 15 -10 0 -5 9 -10 20 -10 12 0 30 -9 42 -19 11 -11 26 -17 33
-15 7 3 19 -1 26 -8 15 -13 33 -20 56 -21 7 0 10 -4 7 -8 -3 -6 25 -21 46 -24
3 0 11 -4 18 -8 6 -5 12 -5 12 -1 0 4 10 -1 22 -12 14 -13 19 -14 14 -4 -4 9
-2 8 7 -2 8 -10 22 -18 31 -18 9 0 16 -4 16 -10 0 -5 11 -10 25 -10 14 0 28
-6 31 -14 3 -8 12 -12 20 -9 8 3 14 0 14 -6 0 -6 9 -11 20 -11 11 0 20 -5 20
-11 0 -6 7 -9 15 -5 8 3 15 1 15 -5 0 -6 5 -7 10 -4 6 3 10 2 10 -3 0 -5 18
-14 40 -21 22 -6 40 -16 40 -22 0 -6 4 -8 8 -5 5 3 25 -4 45 -14 21 -11 37
-17 37 -13 0 5 4 2 9 -5 4 -7 17 -14 29 -15 11 0 18 -5 16 -9 -3 -4 0 -8 5 -8
19 0 25 -3 45 -22 19 -17 21 -17 39 0 10 9 22 17 26 17 3 0 5 5 3 10 -2 6 0 7
3 3 4 -4 24 1 45 12 21 11 40 16 44 13 3 -4 6 -2 6 3 0 6 17 16 38 23 20 8 46
21 56 30 16 13 18 13 11 1 -5 -9 1 -7 15 5 14 12 20 14 15 5 -4 -8 3 -5 16 6
13 12 30 19 37 17 6 -3 12 0 12 5 0 6 14 13 30 17 17 4 30 11 30 16 0 5 9 9
21 9 11 0 18 4 15 9 -4 5 2 7 12 4 11 -2 26 2 34 11 9 8 18 12 22 9 3 -4 6 -1
6 5 0 7 9 12 19 12 11 0 22 4 26 9 3 5 19 12 35 16 17 4 30 11 30 16 0 6 9 7
21 4 13 -5 19 -3 15 3 -5 8 10 20 34 27 32 8 50 18 50 27 0 6 7 5 17 -3 11
-10 14 -10 9 -1 -4 7 -1 12 8 12 9 0 16 5 16 11 0 5 4 8 9 4 5 -3 17 2 25 11
9 8 16 12 16 8 0 -3 6 -1 13 5 8 6 17 8 20 4 4 -3 7 -1 7 5 0 7 3 11 8 10 15
-3 62 15 62 24 0 5 5 6 10 3 6 -3 10 -2 10 3 0 9 30 22 58 26 7 0 17 8 22 16
9 13 10 13 10 0 0 -13 1 -13 10 0 5 8 13 16 17 16 26 5 53 18 53 25 0 5 3 8 8
7 4 -1 18 4 32 12 14 8 34 15 45 17 11 2 22 8 23 13 2 6 11 10 21 10 9 0 23 6
30 12 11 11 13 10 7 -2 -4 -8 0 -6 9 5 9 11 19 19 23 19 4 -1 18 3 32 9 14 6
30 11 35 12 6 0 9 7 7 15 -3 11 0 11 12 0 9 -7 16 -8 16 -2 0 9 47 27 62 24 5
-1 7 1 5 6 -1 4 0 7 3 8 3 1 25 12 50 25 25 13 48 24 53 25 4 1 9 3 12 4 3 1
8 3 13 4 4 1 17 7 30 14 12 7 22 9 22 5 0 -4 7 2 15 13 8 10 15 16 15 11 0 -4
15 0 33 10 17 9 34 18 37 18 3 1 25 11 49 23 25 12 46 20 49 17 2 -2 11 2 19
10 8 8 23 15 34 15 10 0 19 5 19 11 0 5 4 8 9 5 5 -4 11 -2 13 3 1 5 10 11 18
13 8 2 21 9 28 16 8 7 18 10 23 7 5 -4 9 -2 9 4 0 5 9 8 20 6 11 -2 20 0 20 6
0 5 5 9 11 9 7 0 18 8 26 18 8 9 12 11 8 5 -3 -7 -2 -13 3 -13 6 0 12 7 16 15
3 8 12 12 21 9 8 -3 15 -1 15 5 0 6 3 10 8 9 13 -4 52 13 52 23 0 5 7 9 15 9
15 0 55 19 65 31 6 7 58 21 65 17 2 -2 11 6 20 17 9 11 13 13 9 5 -4 -8 5 -4
19 9 19 17 27 20 27 10 0 -11 2 -11 9 -1 4 7 26 20 47 27 21 8 38 19 37 24 -2
6 0 10 5 10 4 -1 9 -1 12 1 3 1 16 3 29 6 14 2 31 9 38 16 7 6 16 8 20 5 3 -4
13 2 22 12 9 10 24 17 34 15 9 -1 15 2 11 7 -4 8 26 14 49 10 5 -1 6 2 3 7 -3
5 13 15 34 22 22 7 40 17 40 22 0 5 5 6 10 3 6 -3 10 -2 10 2 0 5 20 14 45 21
25 7 45 16 45 22 0 5 7 7 15 4 8 -4 15 -2 15 4 0 6 14 13 31 17 17 4 33 13 36
20 2 8 11 11 19 8 8 -3 14 0 14 6 0 6 3 10 8 9 14 -3 62 14 62 23 0 5 9 9 19
9 11 0 23 5 26 10 4 6 11 8 16 5 5 -4 12 1 15 10 4 9 12 14 20 11 7 -3 18 2
24 9 7 8 16 12 21 9 5 -3 9 0 9 5 0 6 6 10 13 8 6 -1 11 3 10 8 -1 9 14 13 69
18 9 1 14 5 12 9 -5 7 2 9 21 8 3 -1 17 8 32 19 14 12 29 18 34 15 5 -3 9 -1
9 3 0 5 10 9 22 10 11 1 25 7 29 14 4 7 14 9 23 6 9 -4 15 -1 13 6 -1 7 4 11
11 10 6 -2 12 2 12 8 0 5 5 7 10 4 6 -3 10 -1 10 5 0 6 5 8 10 5 6 -3 10 -1
10 5 0 6 5 8 10 5 6 -3 10 -1 10 4 0 6 11 11 25 11 14 0 25 5 25 11 0 5 5 7
10 4 6 -3 10 -1 10 4 0 6 9 11 20 11 11 0 20 5 20 11 0 5 4 8 9 4 5 -3 12 -1
16 5 4 6 11 8 16 5 5 -4 9 -2 9 2 0 8 55 35 75 37 6 1 16 7 23 14 7 6 22 12
33 12 10 0 19 4 19 10 0 5 3 9 8 8 16 -3 61 15 56 23 -3 5 4 9 15 9 12 0 21 5
21 11 0 8 5 8 15 -1 12 -10 16 -9 21 4 3 9 10 13 15 10 5 -3 9 0 9 6 0 6 5 8
10 5 6 -3 10 -1 10 5 0 7 6 10 14 7 8 -3 16 0 19 7 3 7 23 18 46 26 22 7 38
17 35 21 -3 5 0 9 5 9 6 0 11 -4 11 -10 0 -5 9 -2 20 7 11 10 20 25 20 35 0 9
4 19 9 23 6 3 8 21 7 40 -2 19 -1 35 3 35 8 0 11 18 11 57 0 12 4 33 9 46 7
17 6 29 -2 37 -9 10 -9 11 2 5 11 -6 13 -4 8 8 -3 9 -2 19 3 22 5 3 6 13 3 22
-4 11 -3 14 5 9 9 -5 9 -1 2 18 -6 17 -6 26 0 26 6 0 8 11 6 25 -3 13 -1 27 4
30 5 3 7 14 5 25 -2 11 0 20 5 20 5 0 7 12 6 28 -4 34 3 54 17 45 6 -4 7 -1 2
8 -12 18 -7 72 7 80 9 6 9 11 0 22 -7 7 -9 17 -6 20 7 7 15 52 15 82 0 10 3
24 8 30 4 5 7 19 6 30 0 11 5 37 12 57 9 28 9 38 0 42 -8 3 -8 5 1 5 7 1 10 6
7 11 -3 6 -1 10 6 10 9 0 9 3 0 14 -8 9 -8 16 -2 20 6 4 7 14 4 23 -4 10 -2
14 4 10 7 -5 9 0 6 13 -3 12 0 20 6 20 8 0 9 5 3 16 -11 20 -3 74 12 74 6 0 4
5 -4 10 -11 7 -11 10 -2 10 7 0 12 6 11 13 -4 31 2 88 9 83 4 -2 7 20 7 49 -1
30 2 53 5 53 17 -1 20 4 10 21 -6 12 -6 22 -1 26 6 3 8 14 6 25 -2 11 0 20 6
20 5 0 7 10 5 23 -2 12 1 28 6 35 7 7 7 12 1 12 -15 0 -8 40 8 51 12 7 12 9
-1 10 -10 0 -8 3 5 9 11 5 15 9 9 9 -7 1 -9 13 -7 29 2 15 4 35 4 45 0 9 4 15
8 13 4 -3 7 11 6 30 -1 19 1 37 5 39 4 2 7 23 8 46 1 24 5 45 10 48 13 10 13
31 -1 31 -8 0 -7 4 3 10 8 5 11 10 7 10 -4 0 -3 9 3 19 7 14 7 22 0 26 -8 5
-7 11 1 21 6 8 8 14 4 14 -4 0 -3 6 2 13 5 6 9 27 9 45 -1 17 3 32 7 32 5 0 6
4 2 9 -3 5 -1 12 3 15 5 3 8 15 7 28 -1 13 2 29 8 36 7 9 5 11 -9 6 -18 -5
-18 -5 -1 9 11 9 15 21 10 32 -5 14 -3 16 8 10 11 -7 12 -6 2 7 -7 8 -10 18
-7 21 4 3 8 19 10 34 7 50 10 62 17 69 4 4 2 13 -4 21 -8 8 -8 13 -1 13 6 0 9
11 7 25 -1 14 1 25 5 25 5 0 7 8 6 18 -2 9 2 20 8 24 8 5 7 8 -1 8 -7 0 -13 5
-13 11 0 6 7 9 15 6 11 -5 12 -1 5 18 -6 15 -6 27 0 30 5 3 7 12 3 21 -3 9 0
14 8 12 9 -2 14 12 17 46 4 61 -3 83 -22 67 -8 -7 -18 -10 -22 -9 -5 2 -10 -1
-11 -6 -1 -5 -14 -17 -30 -27 -15 -10 -24 -19 -19 -19 8 0 -2 -9 -62 -55 -7
-5 -23 -20 -34 -32 -12 -12 -25 -20 -30 -17 -4 3 -8 -4 -8 -16 0 -12 -4 -19
-9 -15 -6 3 -15 -4 -21 -15 -6 -11 -15 -18 -21 -15 -5 4 -9 -1 -9 -10 0 -9 -4
-13 -10 -10 -5 3 -10 1 -10 -4 0 -6 -4 -11 -9 -11 -6 0 -23 -12 -38 -27 -15
-14 -21 -23 -13 -18 8 5 2 -4 -13 -18 -15 -15 -31 -27 -35 -27 -3 0 -17 -12
-29 -27 -13 -14 -23 -23 -23 -20 0 4 -26 -19 -59 -51 -32 -31 -77 -73 -99 -92
-23 -19 -78 -70 -123 -112 -45 -42 -86 -75 -91 -72 -4 3 -13 -6 -19 -20 -7
-14 -16 -23 -20 -20 -5 3 -9 -2 -9 -11 0 -9 -3 -14 -7 -12 -11 6 -43 -30 -35
-39 4 -4 2 -4 -5 0 -6 3 -36 -18 -70 -50 -100 -97 -145 -134 -156 -127 -6 4
-8 0 -5 -8 3 -8 -1 -20 -8 -27 -8 -7 -14 -10 -14 -7 0 2 -22 -17 -50 -44 -27
-27 -50 -47 -50 -45 0 2 -8 -4 -18 -13 -11 -10 -17 -21 -15 -25 2 -5 -2 -8 -9
-8 -17 -1 -58 -35 -58 -49 0 -6 -5 -10 -12 -8 -6 1 -17 -8 -23 -20 -7 -13 -15
-20 -18 -17 -4 4 -9 -1 -13 -10 -3 -9 -11 -16 -18 -16 -6 0 -18 -9 -26 -20 -8
-11 -20 -20 -27 -20 -7 0 -13 -4 -13 -9 0 -9 -48 -62 -66 -71 -5 -3 -8 -8 -7
-12 2 -5 -4 -8 -12 -8 -8 0 -41 -26 -73 -57 -85 -84 -136 -128 -144 -126 -5 2
-8 -4 -8 -12 0 -8 -5 -15 -10 -15 -6 0 -29 -18 -51 -40 -23 -22 -46 -37 -51
-34 -7 4 -8 2 -4 -5 4 -6 1 -14 -8 -17 -8 -3 -12 -12 -9 -20 3 -8 9 -11 14 -8
5 3 9 -2 9 -11 0 -9 5 -13 10 -10 6 3 10 1 10 -4 0 -6 7 -11 15 -11 8 0 15 -4
15 -9 0 -6 25 -27 55 -48 30 -21 60 -48 66 -60 7 -12 16 -20 20 -17 4 2 13 -6
20 -18 7 -13 20 -30 31 -39 10 -9 18 -21 18 -27 0 -6 10 -18 22 -26 12 -9 19
-16 15 -16 -4 0 -2 -10 5 -22 7 -13 11 -26 10 -30 -1 -5 2 -8 8 -8 5 0 6 -7 3
-17 -5 -12 -3 -14 8 -8 12 7 12 6 1 -7 -10 -13 -10 -17 0 -20 10 -4 10 -10 0
-32 -7 -15 -8 -25 -4 -22 5 3 9 -8 9 -24 0 -16 -4 -27 -8 -25 -4 3 -5 -4 -2
-15 3 -11 0 -20 -6 -20 -6 0 -11 -5 -11 -11 0 -5 6 -7 13 -4 6 4 3 -1 -7 -9
-11 -9 -17 -16 -14 -16 4 0 -10 -18 -31 -40 -20 -22 -43 -40 -50 -40 -7 0 -10
-4 -6 -9 5 -9 -32 -27 -48 -23 -5 1 -6 -1 -4 -5 7 -11 -14 -27 -38 -31 -11 -2
-23 -9 -27 -15 -4 -7 -8 -8 -8 -3 0 5 -6 3 -13 -3 -8 -6 -17 -8 -20 -4 -4 3
-7 0 -7 -7 0 -7 -3 -11 -6 -7 -4 3 -13 -1 -21 -9 -8 -8 -19 -12 -24 -9 -5 4
-9 2 -9 -4 0 -6 -12 -14 -27 -17 -15 -4 -34 -14 -42 -21 -8 -8 -22 -12 -33
-10 -10 3 -16 1 -12 -4 3 -5 -5 -13 -18 -18 -72 -28 -167 -79 -161 -86 5 -4
-2 -2 -15 4 -18 10 -23 9 -28 -4 -3 -8 -10 -12 -15 -9 -5 3 -9 -2 -9 -11 0 -9
-4 -13 -10 -10 -5 3 -10 1 -10 -5 0 -6 -3 -9 -7 -7 -9 5 -74 -27 -70 -34 1 -3
-2 -1 -7 3 -5 3 -18 -2 -29 -13 -12 -11 -27 -17 -34 -15 -7 3 -13 1 -13 -5 0
-6 -5 -7 -10 -4 -6 3 -13 0 -16 -9 -3 -8 -12 -12 -20 -9 -8 3 -14 0 -14 -5 0
-6 -9 -9 -20 -7 -11 2 -18 0 -16 -4 5 -8 -63 -46 -76 -43 -5 1 -8 -3 -8 -9 0
-6 -7 -9 -15 -5 -8 3 -15 1 -15 -4 0 -6 -3 -9 -7 -8 -11 2 -67 -25 -75 -37 -4
-5 -8 -7 -8 -3 0 4 -25 -6 -55 -23 -30 -16 -55 -26 -55 -22 0 4 -4 3 -8 -4 -4
-6 -14 -13 -22 -15 -8 -2 -21 -9 -29 -16 -11 -11 -15 -11 -22 0 -7 10 -9 9 -9
-5 0 -10 -4 -16 -9 -13 -10 6 -71 -22 -83 -38 -3 -5 -12 -11 -20 -12 -30 -5
-43 -10 -56 -21 -7 -7 -19 -10 -27 -7 -8 4 -15 2 -15 -4 0 -9 -32 -24 -58 -26
-7 -1 -17 -7 -21 -15 -7 -11 -9 -11 -13 0 -4 11 -8 12 -20 2 -8 -7 -18 -10
-21 -6 -4 3 -7 1 -7 -7 0 -9 -3 -10 -14 -1 -11 9 -17 9 -27 -1 -16 -15 -102
-20 -93 -6 4 7 0 7 -12 1 -24 -13 -71 -10 -86 5 -7 7 -17 8 -28 2 -13 -7 -22
-5 -31 6 -10 12 -14 12 -20 2 -7 -10 -9 -9 -9 4 0 12 -5 15 -17 11 -11 -4 -14
-3 -9 5 4 8 0 12 -12 12 -10 0 -28 9 -39 19 -12 11 -23 18 -26 15 -7 -8 -126
114 -119 122 4 4 2 4 -4 1 -7 -4 -24 9 -40 29 -16 20 -35 43 -42 50 -7 8 -11
14 -7 14 4 0 0 7 -7 15 -31 34 -38 45 -31 45 4 0 0 7 -10 14 -10 8 -18 16 -17
18 4 10 -43 98 -52 98 -6 0 -9 3 -5 6 3 4 -5 28 -18 55 -14 27 -25 56 -25 64
0 10 -5 13 -12 9 -8 -5 -9 -2 -5 9 3 10 2 17 -3 17 -5 0 -13 18 -16 40 -4 22
-10 40 -14 40 -5 0 -7 11 -6 25 2 13 -1 22 -5 19 -10 -6 -12 5 -11 49 0 15 -4
27 -9 27 -5 0 -7 13 -4 29 3 17 0 33 -5 36 -6 4 -7 12 -3 18 12 20 12 67 0 67
-8 0 -8 3 -2 8 6 4 11 18 11 32 1 14 4 39 8 55 4 17 8 36 8 43 1 6 6 12 11 12
5 0 7 7 3 15 -3 8 -1 15 4 15 6 0 10 6 10 13 0 8 9 22 20 32 11 10 17 22 14
26 -3 5 6 14 20 20 14 7 23 16 20 20 -3 5 1 9 9 9 7 0 20 11 27 25 7 14 16 23
18 20 3 -2 12 3 21 13 23 26 75 57 66 41 -3 -8 0 -6 7 3 8 9 21 18 28 20 8 2
21 9 28 16 8 7 18 10 23 7 5 -4 9 -1 9 6 0 7 3 9 7 6 3 -4 12 -2 20 4 7 6 22
9 33 6 11 -3 18 -1 14 4 -3 5 0 9 6 9 6 0 9 4 6 8 -3 4 10 7 27 6 18 -1 38 2
44 8 7 6 24 8 38 6 13 -3 22 -2 20 2 -3 5 2 11 11 14 22 9 36 7 30 -2 -3 -5 1
-9 9 -9 8 0 11 5 8 10 -4 6 2 8 13 5 11 -3 25 1 33 9 10 11 16 11 27 2 11 -9
17 -9 29 1 12 10 15 10 15 0 0 -10 3 -10 14 -1 15 13 37 11 48 -4 4 -5 10 -2
13 7 4 10 -2 29 -14 47 -12 16 -21 33 -21 38 0 4 -11 30 -25 57 -13 27 -22 52
-19 57 3 5 -1 9 -10 9 -8 0 -13 8 -12 17 2 10 -6 26 -16 37 -10 11 -16 26 -14
33 3 7 1 13 -5 13 -6 0 -7 5 -4 10 3 6 2 10 -3 10 -8 0 -21 25 -26 52 0 4 -7
13 -13 20 -7 6 -13 20 -13 31 0 12 -4 16 -12 11 -10 -5 -10 -4 -1 6 9 10 8 16
-3 27 -8 8 -12 19 -9 24 4 5 2 9 -4 9 -8 0 -18 19 -26 50 -8 27 -27 60 -35 60
-6 0 -8 4 -5 10 3 5 -1 22 -9 37 -17 30 -33 72 -34 87 0 5 -6 12 -14 17 -7 5
-13 12 -14 16 -2 23 -75 176 -86 181 -4 2 -4 10 -1 18 3 8 0 14 -6 14 -6 0 -8
7 -5 15 4 8 1 15 -5 15 -6 0 -11 7 -11 16 0 8 -7 22 -15 31 -8 8 -13 19 -10
24 4 5 1 9 -4 9 -6 0 -11 9 -11 20 0 11 -6 20 -12 20 -9 0 -8 4 2 10 13 8 13
10 -2 10 -11 0 -16 6 -13 20 2 11 0 20 -5 20 -5 0 -14 16 -21 34 -7 19 -16 33
-20 30 -5 -2 -6 5 -4 16 2 11 -3 26 -11 34 -8 8 -14 19 -14 25 0 11 -20 51
-30 61 -3 3 -7 14 -8 25 -2 11 -9 23 -15 27 -7 4 -8 8 -4 8 5 0 1 10 -7 22 -9
12 -16 30 -16 40 0 10 -5 18 -11 18 -5 0 -7 5 -4 10 3 6 1 10 -5 10 -6 0 -8 5
-5 10 3 6 1 10 -4 10 -6 0 -11 5 -11 11 0 6 -13 40 -30 76 -16 35 -30 69 -30
74 0 6 -5 7 -12 3 -8 -5 -9 0 -6 14 4 12 2 22 -4 22 -5 0 -7 4 -4 9 4 5 2 11
-4 13 -6 2 -12 13 -14 25 -3 12 -9 30 -15 41 -6 11 -8 22 -6 26 3 3 2 4 -2 1
-9 -7 -35 47 -29 62 3 7 0 12 -6 10 -7 -1 -13 4 -14 11 -1 6 -3 15 -4 20 -1 4
-2 10 -1 15 0 4 -4 7 -10 7 -5 0 -8 4 -5 9 3 5 -1 14 -9 21 -8 7 -15 21 -15
31 0 11 -4 19 -10 19 -5 0 -10 6 -10 13 0 7 -10 33 -22 58 -11 24 -21 50 -21
57 0 6 -4 12 -8 12 -8 0 -24 40 -21 53 1 4 -2 7 -8 7 -6 0 -10 3 -9 8 2 15
-14 52 -23 52 -5 0 -7 4 -3 9 3 5 1 12 -5 16 -6 4 -8 11 -5 16 4 5 2 9 -3 9
-12 0 -33 56 -25 64 4 3 1 6 -6 6 -7 0 -9 5 -6 10 3 6 1 10 -4 10 -6 0 -11 9
-11 20 0 11 -4 20 -10 20 -5 0 -10 9 -10 20 0 11 -5 20 -11 20 -5 0 -7 5 -4
10 3 6 1 10 -5 10 -7 0 -10 7 -6 15 3 8 1 15 -4 15 -6 0 -10 7 -10 15 0 8 -4
15 -9 15 -5 0 -8 8 -7 18 0 9 -5 16 -12 14 -8 -1 -11 2 -8 7 4 5 1 22 -6 38
-6 15 -11 31 -10 36 1 4 -2 7 -8 7 -5 0 -10 9 -10 21 0 11 -4 18 -9 15 -5 -4
-8 2 -7 11 2 10 -3 24 -11 31 -7 7 -16 25 -20 40 -3 15 -13 33 -20 41 -8 8
-11 17 -6 20 4 3 8 16 9 29 0 17 -5 22 -27 22 -18 0 -28 -6 -32 -20z"/>
<path d="M642 3984 c-7 -8 -9 -14 -4 -14 5 0 10 -11 11 -25 1 -14 3 -36 4 -50
1 -14 4 -25 7 -25 5 0 9 -29 13 -90 1 -19 5 -37 9 -40 4 -3 9 -21 11 -41 2
-19 6 -39 9 -44 3 -6 7 -26 9 -45 2 -19 8 -38 14 -42 6 -5 6 -8 -2 -8 -9 0 -8
-7 2 -27 11 -21 12 -29 2 -35 -9 -6 -8 -8 3 -8 13 0 13 -1 0 -10 -11 -7 -11
-10 -2 -10 7 0 10 -4 7 -10 -3 -5 -2 -10 4 -10 5 0 7 -14 4 -31 -3 -21 -1 -29
6 -25 7 4 8 1 5 -8 -4 -9 -1 -16 6 -16 10 0 10 -3 0 -15 -7 -8 -8 -15 -3 -15
8 0 13 -20 16 -67 0 -13 5 -23 9 -23 4 0 6 -14 4 -30 -2 -17 1 -33 5 -36 5 -3
7 -10 4 -15 -4 -5 0 -9 7 -9 11 0 11 -2 0 -9 -10 -6 -10 -10 3 -21 13 -11 13
-15 3 -21 -10 -7 -10 -9 1 -9 11 0 11 -3 1 -15 -9 -11 -9 -15 -1 -15 7 0 9 -5
6 -10 -4 -6 -2 -17 4 -23 6 -7 12 -32 13 -55 2 -23 6 -42 10 -42 3 0 5 -8 4
-17 -2 -10 4 -24 13 -31 15 -11 14 -12 -1 -6 -17 6 -19 -10 -5 -33 5 -7 6 -17
2 -22 -3 -5 -1 -12 4 -16 5 -3 10 -13 10 -23 1 -35 5 -52 10 -52 6 0 9 -22 14
-92 1 -16 5 -28 9 -28 4 0 7 -8 6 -17 0 -22 10 -64 17 -71 2 -3 -1 -12 -8 -20
-10 -13 -9 -14 2 -8 9 6 12 5 9 -5 -3 -8 2 -20 11 -27 14 -10 13 -11 -4 -5
-18 6 -18 5 -6 -10 7 -9 10 -17 5 -17 -4 0 -3 -5 4 -12 7 -7 8 -17 2 -28 -7
-13 -5 -21 4 -29 8 -7 13 -23 11 -36 -1 -14 1 -25 5 -25 4 0 7 -6 8 -12 1 -7
4 -29 6 -48 2 -19 5 -36 6 -37 3 -3 7 -19 9 -32 0 -5 24 -8 51 -8 28 1 50 -1
50 -5 0 -4 7 -5 15 -2 8 3 20 2 27 -2 17 -11 39 -11 60 -2 10 5 20 3 24 -3 4
-8 9 -7 15 2 5 8 9 9 9 3 0 -6 11 -11 25 -11 16 0 22 4 18 11 -5 8 -3 8 8 0
20 -15 61 -16 52 -1 -5 9 -3 9 8 1 20 -15 61 -16 52 -1 -5 9 -3 9 8 1 19 -15
111 -15 102 0 -4 6 1 5 10 -2 9 -8 37 -15 62 -15 25 -1 45 -5 45 -9 0 -8 27
-4 36 5 12 11 26 8 18 -4 -4 -7 2 -6 17 1 16 9 24 10 27 2 2 -7 11 -8 28 -2
16 7 24 6 24 -1 0 -7 6 -6 17 2 15 12 16 12 8 -1 -8 -13 -7 -13 8 -1 14 11 17
11 17 0 0 -11 2 -11 10 1 5 8 10 10 10 4 0 -7 11 -11 24 -10 13 0 22 4 19 9
-2 4 1 7 6 7 6 0 11 -5 11 -10 0 -7 7 -7 22 1 18 10 20 9 14 -7 -7 -17 -6 -17
14 1 12 11 20 13 20 6 0 -9 5 -9 21 0 15 8 19 8 15 0 -8 -12 1 -13 74 -15 25
-1 48 3 52 9 5 6 8 6 8 -2 0 -6 9 -9 22 -5 16 4 19 2 13 -8 -6 -10 -4 -11 6
-4 21 13 49 15 49 3 0 -6 5 -7 13 -2 19 12 97 11 97 -1 0 -7 3 -7 8 -1 10 14
32 17 32 4 0 -6 5 -7 13 -2 18 11 38 13 32 2 -4 -5 8 -7 24 -5 17 2 32 -2 35
-8 3 -7 5 -6 5 2 1 9 7 10 19 4 20 -9 83 -9 100 2 7 4 12 3 12 -1 0 -5 9 -9
20 -10 11 -1 20 3 20 9 0 7 5 7 13 1 6 -5 39 -8 72 -8 33 1 63 -3 67 -9 5 -8
8 -7 8 1 0 9 12 11 41 8 24 -3 38 -2 35 4 -3 5 3 7 14 4 11 -3 17 -9 14 -14
-3 -5 15 -7 41 -5 31 4 44 2 39 -5 -4 -6 4 -6 17 2 13 7 26 11 29 9 14 -10 81
-16 86 -8 3 5 12 4 20 -3 11 -9 14 -8 14 2 0 9 3 10 8 4 9 -13 42 -16 42 -3 0
5 5 6 11 3 6 -4 42 -7 80 -7 38 0 67 -3 64 -7 -2 -4 2 -8 10 -8 8 0 15 5 15
10 0 5 7 4 15 -3 12 -10 15 -10 15 1 0 9 3 10 8 3 4 -6 67 -11 172 -11 91 -1
167 -2 170 -3 3 -1 16 -1 29 0 13 1 21 -2 18 -7 -3 -5 3 -10 14 -10 10 -1 19
3 19 8 0 6 6 7 13 2 17 -10 49 -15 44 -6 -3 5 10 8 29 8 19 0 34 -2 34 -5 0
-8 48 -5 56 3 6 5 17 2 45 -15 3 -1 13 3 22 10 8 7 18 9 20 5 3 -5 47 -8 99
-8 71 0 96 -3 106 -15 8 -8 11 -10 8 -4 -4 9 10 11 47 9 28 -2 52 -4 52 -5 0
-1 12 -3 28 -4 15 -1 27 1 27 4 0 3 11 5 25 5 14 0 25 -3 25 -7 0 -5 5 -8 11
-8 5 0 7 5 3 12 -4 7 -3 8 5 4 18 -12 61 -14 61 -4 0 5 9 4 19 -2 14 -7 22 -7
26 0 4 6 11 7 17 4 6 -4 29 -8 52 -10 23 -1 53 -5 68 -7 14 -3 32 0 40 6 7 7
12 11 9 10 -2 -1 -10 5 -18 13 -8 8 -18 12 -23 9 -4 -3 -10 2 -14 10 -3 8 -10
15 -16 15 -6 0 -8 -6 -5 -12 4 -7 0 -5 -8 4 -8 10 -17 15 -20 11 -4 -3 -7 -1
-7 5 0 7 -9 12 -20 12 -11 0 -20 5 -20 10 0 6 -9 10 -20 10 -11 0 -20 5 -20
10 0 6 -7 10 -15 10 -8 0 -23 4 -33 9 -21 12 -53 24 -67 26 -5 0 -9 6 -8 11 2
10 -4 12 -46 16 -11 1 -18 5 -16 8 2 3 -8 10 -21 17 -18 8 -23 8 -18 0 3 -7
-2 -3 -11 8 -8 11 -21 20 -28 20 -23 1 -57 16 -57 27 0 5 -7 8 -15 4 -8 -3
-15 -1 -15 5 0 6 -4 8 -9 4 -5 -3 -16 1 -24 9 -8 8 -17 13 -19 10 -3 -2 -11 2
-17 10 -7 8 -19 12 -27 9 -8 -3 -14 0 -14 7 0 7 -7 10 -16 6 -8 -3 -12 -2 -9
4 3 6 1 10 -6 10 -19 0 -89 33 -89 42 0 4 -6 5 -14 2 -8 -3 -17 0 -21 5 -3 6
-11 9 -16 6 -5 -4 -9 2 -9 12 0 15 -2 16 -10 3 -5 -8 -10 -10 -10 -5 0 6 -9
16 -21 23 -13 9 -18 9 -14 2 8 -13 -31 7 -53 28 -7 7 -18 10 -23 7 -5 -4 -9
-1 -9 6 0 7 -3 10 -6 6 -4 -3 -21 1 -38 10 -17 10 -37 16 -45 14 -7 -1 -10 2
-6 8 5 10 -14 16 -37 12 -5 0 -8 3 -8 9 0 5 -9 10 -19 10 -11 0 -21 4 -23 9
-1 5 -12 11 -23 13 -11 1 -29 11 -39 20 -10 10 -23 15 -27 12 -4 -2 -10 0 -14
6 -4 6 -11 8 -16 5 -5 -4 -9 -2 -9 3 0 9 -79 39 -93 34 -4 -1 -6 3 -5 10 2 7
-1 13 -7 13 -16 2 -47 15 -77 31 -16 8 -28 12 -28 7 0 -4 -4 -3 -8 2 -12 17
-52 36 -62 30 -6 -4 -10 1 -10 9 0 10 -6 13 -15 10 -8 -4 -21 -1 -29 5 -7 6
-17 7 -21 3 -5 -4 -5 -2 -1 5 5 10 -21 26 -47 28 -4 0 -12 7 -17 15 -9 13 -10
13 -10 0 -1 -12 -3 -12 -11 2 -5 10 -16 15 -24 12 -8 -4 -15 -1 -15 5 0 6 -7
11 -17 11 -9 0 -32 12 -51 27 -20 15 -32 21 -28 15 12 -20 -9 -13 -24 7 -7 11
-17 18 -22 15 -4 -3 -18 1 -30 8 -13 7 -26 11 -30 10 -5 -1 -8 3 -8 9 0 5 -4
8 -9 4 -5 -3 -16 2 -24 10 -9 8 -25 15 -37 15 -11 0 -23 7 -26 15 -4 8 -9 13
-13 10 -4 -2 -19 2 -34 10 -14 7 -28 11 -31 7 -3 -3 -6 0 -6 7 0 7 -4 9 -10 6
-5 -3 -10 -1 -10 5 0 7 -6 10 -14 7 -8 -3 -17 1 -20 10 -4 9 -13 13 -21 9 -9
-3 -18 1 -21 9 -4 8 -10 12 -15 10 -4 -3 -17 3 -28 14 -13 13 -21 16 -25 8 -3
-9 -5 -9 -5 1 -1 6 -13 12 -27 12 -14 0 -23 4 -19 10 3 6 -3 10 -14 10 -12 0
-21 4 -21 9 0 5 -7 12 -16 15 -8 3 -12 2 -9 -4 3 -6 -1 -7 -9 -4 -9 3 -16 11
-16 17 0 6 -3 7 -7 4 -3 -4 -15 1 -26 10 -15 13 -19 14 -13 3 4 -8 0 -6 -8 4
-9 12 -16 14 -16 7 0 -10 -3 -10 -15 1 -36 32 -45 38 -65 38 -14 0 -19 4 -14
12 4 6 3 8 -3 5 -6 -4 -27 2 -48 13 -21 11 -42 17 -46 14 -5 -3 -9 0 -9 5 0 6
-7 11 -15 11 -8 0 -15 5 -15 11 0 5 -4 8 -9 4 -5 -3 -17 2 -25 11 -9 8 -16 12
-16 8 0 -3 -6 -1 -13 5 -8 6 -17 8 -20 4 -4 -3 -7 -1 -7 5 0 7 -3 11 -7 10 -5
-1 -18 3 -29 10 -12 6 -24 8 -28 5 -3 -3 -6 -2 -6 4 0 11 -57 37 -72 34 -5 0
-8 4 -8 11 0 6 -3 9 -6 6 -3 -4 -17 0 -31 7 -15 8 -30 12 -34 10 -4 -3 -9 2
-13 10 -3 8 -14 15 -25 15 -10 0 -22 7 -25 16 -5 14 -9 14 -24 3 -9 -7 -14 -9
-10 -5 4 5 -12 17 -35 28 -23 11 -58 27 -76 36 -19 9 -39 16 -43 15 -4 -2 -8
2 -8 7 0 6 -9 10 -20 10 -11 0 -20 4 -20 9 0 9 -48 26 -62 23 -5 -1 -8 3 -8 9
0 5 -4 7 -10 4 -5 -3 -10 1 -10 9 0 9 -6 13 -13 10 -14 -5 -70 20 -62 27 2 3
-6 6 -18 6 -12 1 -23 7 -25 13 -2 5 -8 8 -13 4 -5 -3 -9 -1 -9 4 0 5 -10 9
-22 8 -14 -1 -22 4 -20 12 1 6 -1 11 -5 10 -16 -3 -63 14 -58 22 2 4 -3 7 -13
7 -23 0 -82 25 -82 36 0 4 -4 5 -10 2 -5 -3 -10 -1 -10 5 0 6 -4 9 -9 6 -5 -3
-34 7 -64 23 -31 16 -58 27 -61 23 -3 -3 -6 -1 -6 5 0 6 -22 19 -50 29 -27 10
-50 22 -50 28 0 5 -3 7 -6 3 -4 -3 -21 1 -38 10 -17 10 -34 16 -38 15 -5 -1
-8 3 -8 8 0 6 -8 10 -17 10 -9 0 -24 6 -32 14 -14 12 -18 12 -29 0z"/>
<path d="M9350 3993 c0 -7 -9 -10 -20 -8 -11 2 -18 0 -15 -5 4 -7 -43 -31 -68
-34 -4 -1 -11 -5 -15 -11 -4 -5 -13 -11 -19 -12 -7 -2 -19 -4 -25 -5 -7 -2
-19 -9 -26 -16 -8 -7 -17 -10 -22 -7 -5 3 -10 0 -12 -5 -2 -6 -13 -12 -25 -13
-13 0 -25 -7 -28 -15 -3 -8 -12 -12 -19 -9 -8 3 -20 -1 -26 -9 -7 -8 -19 -14
-26 -14 -8 0 -14 -4 -14 -10 0 -5 -6 -7 -13 -4 -8 3 -20 -2 -27 -10 -7 -9 -16
-13 -21 -10 -5 3 -9 0 -9 -5 0 -6 -3 -10 -7 -9 -11 3 -57 -13 -63 -21 -3 -4
-34 -20 -70 -35 -36 -16 -68 -34 -72 -40 -5 -7 -8 -6 -8 4 0 9 -3 11 -8 5 -12
-16 -93 -55 -103 -49 -5 3 -9 -1 -9 -10 0 -8 -8 -13 -17 -11 -10 1 -30 -6 -44
-16 -14 -10 -29 -16 -33 -12 -3 3 -6 1 -6 -6 0 -7 -6 -11 -14 -8 -8 3 -17 -1
-20 -9 -3 -8 -9 -13 -13 -12 -4 1 -18 -3 -29 -10 -12 -6 -24 -8 -28 -5 -3 3
-6 1 -6 -6 0 -7 -4 -9 -10 -6 -5 3 -10 1 -10 -5 0 -6 -4 -8 -10 -5 -5 3 -10 2
-10 -4 0 -5 -13 -12 -30 -16 -16 -4 -30 -11 -30 -17 0 -6 -7 -7 -16 -4 -8 3
-12 2 -9 -4 3 -6 -3 -10 -14 -10 -11 0 -23 -5 -26 -10 -4 -6 -11 -8 -16 -5 -5
4 -9 1 -9 -6 0 -7 -3 -9 -7 -6 -3 4 -12 2 -20 -4 -7 -6 -13 -8 -13 -5 0 4 -7
0 -16 -8 -8 -9 -20 -14 -25 -11 -5 4 -9 1 -9 -6 0 -7 -3 -9 -6 -6 -4 4 -20 -3
-37 -15 -19 -13 -28 -16 -23 -7 4 7 1 6 -7 -4 -8 -10 -23 -17 -34 -15 -11 2
-17 -2 -15 -10 1 -7 -3 -12 -10 -11 -18 2 -78 -24 -78 -34 0 -4 -4 -6 -9 -2
-5 3 -16 -1 -24 -9 -8 -8 -17 -12 -21 -9 -3 4 -6 1 -6 -5 0 -6 -9 -9 -20 -7
-11 2 -20 -2 -20 -8 0 -7 -12 -14 -27 -15 -15 -1 -30 -8 -35 -15 -4 -6 -8 -7
-8 -2 0 6 -4 4 -9 -3 -4 -7 -14 -14 -22 -16 -8 -1 -24 -8 -37 -14 -12 -7 -27
-10 -32 -7 -6 4 -13 -1 -16 -10 -4 -9 -12 -14 -20 -11 -7 3 -14 1 -16 -4 -2
-5 -10 -10 -18 -12 -8 -2 -21 -9 -28 -16 -8 -7 -18 -10 -23 -7 -5 4 -9 1 -9
-6 0 -7 -3 -10 -6 -6 -4 3 -13 -1 -21 -9 -8 -8 -19 -12 -24 -9 -5 4 -9 1 -9
-4 0 -6 -3 -10 -7 -9 -5 1 -21 -5 -38 -12 -16 -7 -33 -13 -37 -12 -5 1 -8 -2
-8 -7 0 -7 -35 -22 -48 -20 -2 0 -10 -8 -19 -18 -8 -10 -11 -12 -8 -4 6 9 1 9
-17 -3 -14 -9 -28 -13 -31 -9 -4 3 -15 -1 -24 -9 -18 -16 -88 -50 -108 -53 -5
0 -9 -5 -8 -10 1 -6 -10 -11 -24 -12 -14 0 -29 -6 -33 -13 -4 -6 -9 -11 -11
-9 -2 1 -26 -8 -54 -21 -27 -13 -53 -22 -57 -22 -5 1 -8 -2 -8 -8 0 -5 -7 -6
-17 -3 -12 5 -14 3 -8 -7 6 -10 3 -12 -13 -8 -12 4 -20 2 -16 -3 3 -5 0 -9 -5
-9 -23 0 -26 -2 -35 -17 -7 -13 -10 -13 -17 -2 -6 10 -9 11 -9 2 0 -7 -7 -13
-15 -13 -8 0 -15 -4 -15 -10 0 -5 -9 -10 -19 -10 -11 0 -26 -6 -33 -13 -7 -8
-19 -12 -26 -9 -6 2 -12 -2 -12 -8 0 -7 -7 -10 -15 -6 -8 3 -15 1 -15 -5 0 -6
-6 -9 -14 -6 -8 3 -17 0 -19 -8 -3 -7 -19 -16 -36 -20 -17 -4 -31 -11 -31 -16
0 -5 -9 -9 -19 -9 -11 0 -26 -6 -33 -13 -7 -7 -16 -14 -20 -15 -15 -4 -18 -5
-25 -7 -5 -2 -18 -6 -30 -10 -13 -4 -23 -11 -23 -15 0 -4 -7 -11 -16 -14 -10
-4 -13 -2 -8 6 4 7 -6 2 -23 -10 -17 -12 -33 -19 -37 -15 -3 3 -6 1 -6 -5 0
-7 -9 -12 -21 -12 -11 0 -18 -4 -15 -9 4 -5 -3 -7 -14 -4 -11 3 -20 1 -20 -5
0 -9 -36 -25 -52 -23 -5 1 -8 -4 -8 -10 0 -5 -5 -7 -10 -4 -6 3 -13 -1 -16
-10 -6 -13 -8 -14 -15 -3 -7 10 -9 11 -9 0 0 -7 -4 -10 -10 -7 -5 3 -10 2 -10
-3 0 -9 -37 -25 -52 -23 -5 1 -8 -4 -8 -9 0 -6 -6 -10 -13 -10 -7 0 -29 -9
-50 -20 -20 -11 -37 -17 -37 -13 0 5 -4 2 -9 -5 -4 -7 -14 -14 -22 -16 -30 -5
-59 -18 -59 -26 0 -4 -8 -7 -17 -6 -10 2 -21 -2 -25 -8 -4 -6 -11 -11 -15 -11
-4 -1 -18 -6 -30 -13 -13 -7 -23 -10 -23 -7 0 4 -7 -1 -16 -9 -8 -9 -19 -14
-24 -11 -4 3 -13 -2 -20 -10 -7 -8 -16 -12 -21 -9 -5 3 -9 0 -9 -5 0 -6 -3
-11 -7 -10 -16 2 -53 -14 -53 -23 0 -5 -4 -6 -10 -3 -5 3 -10 2 -10 -3 0 -5
-7 -9 -15 -10 -8 -1 -22 -3 -30 -4 -8 -1 -12 -5 -9 -10 3 -4 1 -8 -5 -8 -5 0
-22 -5 -38 -12 -15 -6 -34 -10 -42 -9 -7 1 -10 -2 -7 -7 3 -5 -13 -15 -36 -21
-23 -7 -59 -24 -81 -38 -21 -13 -36 -19 -32 -13 6 9 2 9 -14 1 -11 -7 -21 -15
-21 -19 0 -4 -10 -8 -22 -9 -11 -1 -24 -7 -28 -14 -4 -6 -13 -8 -20 -4 -9 6
-9 3 -2 -12 6 -10 20 -19 31 -20 13 -1 19 3 15 9 -4 7 0 7 13 -1 11 -6 23 -8
26 -4 11 10 70 15 122 10 17 -1 36 2 44 8 10 7 15 7 18 -1 4 -11 54 -11 72 1
6 3 11 1 11 -6 0 -8 4 -8 13 -1 15 13 29 13 44 1 7 -7 14 -6 18 1 4 7 12 7 25
0 13 -7 21 -7 25 0 3 6 17 8 31 6 14 -3 24 0 24 7 0 7 4 6 10 -3 6 -9 10 -10
10 -3 0 13 59 11 81 -2 7 -5 10 -4 6 2 -5 7 21 10 78 9 54 -1 85 2 85 9 0 6 3
7 8 0 8 -12 46 -20 39 -8 -3 4 6 9 19 9 13 1 24 -2 24 -7 0 -5 5 -9 11 -9 5 0
8 4 5 9 -6 9 37 7 53 -3 5 -4 14 2 20 11 6 10 11 13 11 6 0 -7 7 -10 17 -6 11
4 14 3 9 -5 -5 -8 -2 -10 8 -6 9 3 16 11 16 18 0 6 5 4 10 -4 5 -8 10 -10 10
-5 0 6 29 10 67 10 38 0 71 -4 75 -10 5 -7 8 -7 8 0 0 6 32 9 78 9 42 -1 82 3
89 8 7 6 14 5 18 -2 3 -6 11 -8 16 -5 19 12 49 13 49 2 0 -9 2 -9 8 0 4 7 32
11 75 10 37 -1 67 1 67 4 0 3 20 3 45 -1 25 -4 48 -3 51 2 3 5 12 3 21 -3 12
-10 16 -10 24 2 7 12 9 12 9 -1 0 -11 2 -12 8 -3 4 7 18 11 31 8 13 -2 33 0
43 6 16 9 19 8 13 -2 -6 -8 -4 -10 5 -4 19 12 89 14 96 3 3 -5 11 -5 17 0 7 5
63 8 125 8 61 -1 112 2 112 5 0 3 16 5 35 4 20 -1 35 3 35 9 0 7 3 7 8 -1 5
-8 13 -9 22 -3 8 5 21 5 32 -1 13 -7 18 -6 18 3 0 8 3 9 8 3 8 -12 42 -16 42
-6 0 4 7 8 15 8 8 0 15 -5 15 -10 0 -5 6 -4 14 2 10 8 16 9 21 1 4 -7 13 -7
28 1 16 9 22 9 25 0 3 -8 9 -6 19 6 8 10 12 13 9 6 -8 -15 10 -27 19 -13 3 5
17 7 31 4 16 -4 24 -2 24 6 0 10 3 10 15 0 8 -7 15 -8 15 -4 0 5 40 9 90 8 49
-1 87 3 84 7 -3 5 7 4 21 -1 33 -13 38 -13 30 0 -4 6 2 7 17 1 15 -6 31 -5 42
1 14 8 17 8 11 -2 -6 -9 -3 -9 14 -1 16 9 21 9 21 0 0 -7 7 -8 18 -4 9 4 53 9
97 11 43 3 81 7 84 9 2 3 10 0 18 -6 7 -6 13 -8 13 -3 0 5 24 9 54 9 30 1 52
-3 49 -8 -3 -5 3 -5 13 0 11 5 31 8 47 7 18 -2 25 1 21 8 -5 7 -2 8 7 2 19
-12 52 -12 61 1 5 7 8 6 8 -1 0 -11 35 -12 46 -1 12 12 26 8 18 -5 -6 -10 -5
-10 7 -1 8 6 42 10 77 10 35 -1 62 2 62 8 0 6 5 3 10 -5 5 -8 10 -10 10 -4 0
12 41 11 59 -1 6 -3 11 0 11 7 0 10 2 10 9 -1 6 -9 10 -10 16 -2 5 9 10 9 21
0 11 -9 14 -9 14 1 0 9 4 9 17 -1 11 -10 14 -10 9 -1 -4 7 -2 12 4 12 7 0 10
7 6 15 -3 8 2 19 12 24 14 8 14 10 2 11 -9 0 -11 3 -5 8 6 4 11 18 11 32 3 46
4 51 12 46 5 -3 6 9 4 26 -3 16 0 33 5 37 9 5 21 76 26 154 1 15 4 27 7 27 6
0 11 26 13 68 0 12 5 22 10 22 4 0 5 4 2 10 -3 5 -1 19 6 31 9 17 8 20 -2 14
-9 -6 -10 -4 -3 6 5 8 9 17 10 22 1 4 3 10 4 15 1 4 2 15 1 25 -1 9 3 17 8 17
6 0 11 9 11 21 0 13 -4 18 -12 13 -9 -6 -9 -3 1 9 7 9 11 24 7 32 -4 11 -2 14
6 9 7 -5 9 -2 5 9 -3 9 -1 18 6 21 8 3 7 5 -2 5 -11 1 -10 6 5 23 10 12 13 18
7 14 -7 -4 -13 -2 -13 3 0 6 4 11 9 11 4 0 7 11 6 25 -2 14 0 25 5 25 5 0 7
11 5 25 -1 14 1 28 6 30 4 3 6 14 4 24 -2 11 2 27 10 37 9 13 10 24 4 36 -6
12 -6 18 0 18 6 0 7 7 4 17 -4 11 -3 14 6 9 13 -8 11 15 -2 25 -5 3 -1 13 7
22 12 11 13 17 3 20 -9 4 -9 6 0 6 7 1 10 8 7 16 -4 8 0 23 7 32 8 8 12 27 11
40 -2 13 1 30 7 36 5 7 8 22 7 32 -2 11 -1 25 3 30 3 6 6 17 6 25 0 8 4 21 9
29 7 11 6 12 -5 6 -11 -7 -12 -6 -3 6 5 8 10 23 10 34 -1 11 4 23 9 27 6 5 4
8 -5 8 -11 0 -12 2 -2 8 17 11 24 52 9 52 -7 0 -5 5 5 10 10 6 15 21 14 40 -1
16 1 30 4 30 6 0 11 34 14 87 0 17 4 29 9 26 4 -2 8 11 9 29 2 48 4 61 13 81
4 11 3 23 -4 30 -8 8 -11 8 -11 0z"/>
<path d="M8416 3733 c-6 -14 -5 -15 5 -6 7 7 10 15 7 18 -3 3 -9 -2 -12 -12z"/>
<path d="M8436 3701 c9 -9 34 -9 34 -1 0 5 -9 8 -20 7 -10 -1 -17 -3 -14 -6z"/>
<path d="M8496 3661 c-3 -5 1 -14 8 -20 10 -9 16 -9 21 -1 4 6 1 9 -7 8 -7 -2
-12 3 -10 10 2 14 -4 16 -12 3z"/>
</g>
</svg>
